# xmcd
#
# Track frame offsets: 
#        150
#        14464
#        33781
#        48747
#        65058
#        85187
#        100220
#        124377
#        142787
#        160429
#
# Disc length: 2377 seconds
#
# Revision: 2
# Processed by: cddbd v1.5.2PL0 Copyright (c) Steve Scherf et al.
# Submitted via: ExactAudioCopy v1.0b3
#
DISCID=8609470a
DTITLE=McGuinn, Clark and Hillman - McGuinn, Clark and Hillman
DYEAR=1979
DGENRE=Pop
TTITLE0=Long Long Time
TTITLE1=Little Mama
TTITLE2=Don't You Write Her Off
TTITLE3=Surrender To Me
TTITLE4=Backstage Pass
TTITLE5=Stopping Traffic
TTITLE6=Feelin' Higher
TTITLE7=Sad Boy
TTITLE8=Release Me Girl
TTITLE9=Bye Bye, Baby
EXTD=
EXTT0=
EXTT1=
EXTT2=
EXTT3=
EXTT4=
EXTT5=
EXTT6=
EXTT7=
EXTT8=
EXTT9=
PLAYORDER=
